<?xml version="1.0" encoding="utf-8"?>
<!-- Generator: Adobe Illustrator 16.0.0, SVG Export Plug-In . SVG Version: 6.00 Build 0)  -->
<!DOCTYPE svg PUBLIC "-//W3C//DTD SVG 1.1//EN" "http://www.w3.org/Graphics/SVG/1.1/DTD/svg11.dtd">
<svg version="1.1" id="Layer_1" xmlns="http://www.w3.org/2000/svg" xmlns:xlink="http://www.w3.org/1999/xlink" x="0px" y="0px"
	 width="408px" height="412px" viewBox="0 0 408 412" enable-background="new 0 0 408 412" xml:space="preserve">
<g>
	<path fill="#E35F59" d="M125.893,337.24c0,0,11.211,39.142,56.433,43.693c45.22,4.553,93.055-7.736,95.672-39.598
		C280.612,309.477,125.893,337.24,125.893,337.24z"/>
	<g>
		<path fill="#3E454D" d="M108.327,124.69c0,0,16.444,50.976,112.489,42.783c42.604-5.006,71.008-21.847,76.986-39.141
			c-8.22,184.332-8.22,184.332-8.22,184.332s6.352,31.858-33.636,50.063c-34.008,15.932-127.065,19.116-136.408-40.052
			C110.197,263.508,108.327,124.69,108.327,124.69z"/>
	</g>
	<path fill="#252B32" d="M297.713,128.568c-6.157,17.212-34.485,33.921-76.896,38.905c-96.046,8.193-112.49-42.783-112.49-42.783
		s0.189,14.071,0.75,35.147c11.167,6.019,24.912,10.92,41.854,14.008c94.295,16.457,133.861-20.229,146.479-36.685
		c0.126-2.812,0.253-5.669,0.384-8.572L297.713,128.568z"/>
	<ellipse fill="#E35F59" cx="204" cy="115.474" rx="97.915" ry="54.047"/>
	<linearGradient id="SVGID_1_" gradientUnits="userSpaceOnUse" x1="206.9229" y1="66.5737" x2="203.8061" y2="128.284">
		<stop  offset="0" style="stop-color:#FFFFFF"/>
		<stop  offset="1" style="stop-color:#000000"/>
	</linearGradient>
	<ellipse fill="url(#SVGID_1_)" cx="204.654" cy="111.491" rx="93.897" ry="47.79"/>
	<g>
		<defs>
			<path id="SVGID_2_" d="M288.335,89.821l4.051-32.491l-11.212-5.917L255.11,75.444c-14.012-6.385-3.725-37.489-23.388-38.672
				l-9.508,21.536l-27.95-0.695l-16.162-34.272c-18.52,0.804-17.024,44.888-30.908,50.366L130.938,43.22L120.1,50.048l0.833,39.812
				c-6.492,6.497-10.176,13.842-10.176,21.631c0,26.394,42.038,47.79,93.896,47.79s93.898-21.396,93.898-47.79
				C298.552,103.687,294.852,96.327,288.335,89.821z"/>
		</defs>
		<clipPath id="SVGID_3_">
			<use xlink:href="#SVGID_2_"  overflow="visible"/>
		</clipPath>
		<g clip-path="url(#SVGID_3_)">
			<g>
				<path fill="#F7B3D1" d="M260.446,87.824L227.54,195.638c0,0,10.074,21.544,29.546,13.431
					c30.643-108.099,32.931-108.806,32.931-108.806L260.446,87.824z"/>
				<path fill="#D77FB4" d="M253.816,109.554l-21.501,70.437c3.495,4.422,15.742,18.264,29.074,13.953
					c10.725-37.571,17.455-60.073,21.669-73.549C277.613,121.443,262.339,122.967,253.816,109.554z"/>
				
					<linearGradient id="SVGID_4_" gradientUnits="userSpaceOnUse" x1="-657.0508" y1="5.1113" x2="-608.6613" y2="63.478" gradientTransform="matrix(0.8577 -0.5141 0.5141 0.8577 796.0245 -198.4789)">
					<stop  offset="0" style="stop-color:#003C1C"/>
					<stop  offset="1" style="stop-color:#FFFFFF;stop-opacity:0"/>
				</linearGradient>
				<path opacity="0.56" fill="url(#SVGID_4_)" d="M257.086,209.069c30.643-108.099,32.931-108.806,32.931-108.806l-3.574-1.504
					l-3.793,2.067l-35.98,109.962C249.775,211.104,253.245,210.67,257.086,209.069z"/>
				<path fill="#D77FB4" d="M277.284,86.542c8.246,3.249,14.08,9.09,13.029,13.047c-1.05,3.957-8.588,4.531-16.836,1.282
					c-8.248-3.248-14.08-9.09-13.031-13.046C261.499,83.867,269.036,83.292,277.284,86.542z"/>
				<path fill="#F7B3D1" d="M264.948,87.897c0,0,7.412,11.848,20.94,7.994l3.195-36.368c0,0-5.253-5.316-9.929-2.226
					C274.148,67.214,264.948,87.897,264.948,87.897z"/>
				<path fill="#F391BC" d="M285.429,95.994c-7.809,0.375-13.837-7.76-14.467-10.88c-0.621-3.07,6.981-22.433,9.37-28.403
					c-0.395,0.149-0.787,0.329-1.177,0.587c-5.007,9.916-14.207,30.599-14.207,30.599S272.2,99.443,285.429,95.994z"/>
				
					<linearGradient id="SVGID_5_" gradientUnits="userSpaceOnUse" x1="-700.4668" y1="-68.5073" x2="-632.8527" y2="40.741" gradientTransform="matrix(0.8577 -0.5141 0.5141 0.8577 796.0245 -198.4789)">
					<stop  offset="0" style="stop-color:#FFFFFF"/>
					<stop  offset="1" style="stop-color:#FFFFFF;stop-opacity:0"/>
				</linearGradient>
				<polygon fill="url(#SVGID_5_)" points="264.538,96.706 235.022,201.736 229.632,196.679 259.614,94.2 				"/>
				<path opacity="0.55" fill="#FFFFFF" d="M282.471,58.009c0,0,6.632,1.42,5.628,2.996c-1.004,1.576-2.551,15.108-2.551,15.108
					S285.481,59.304,282.471,58.009z"/>
			</g>
			<g>
				<path fill="#FCB116" d="M215.576,79.378L197.57,192.292c0,0,12.828,19.251,30.953,7.373
					c15.731-112.742,17.895-113.896,17.895-113.896L215.576,79.378z"/>
				<path fill="#F78D1E" d="M211.947,102.136l-11.763,73.768c4.041,3.668,17.979,14.887,30.554,7.983
					c5.542-39.2,9.163-62.739,11.515-76.873C237.021,109.134,222.157,113.674,211.947,102.136z"/>
				
					<linearGradient id="SVGID_6_" gradientUnits="userSpaceOnUse" x1="-552.27" y1="-363.1699" x2="-514.5167" y2="-317.6324" gradientTransform="matrix(0.7622 -0.6473 0.6473 0.7622 861.4669 59.1074)">
					<stop  offset="0" style="stop-color:#003C1C"/>
					<stop  offset="1" style="stop-color:#FFFFFF;stop-opacity:0"/>
				</linearGradient>
				<path opacity="0.56" fill="url(#SVGID_6_)" d="M228.523,199.665c15.731-112.742,17.895-113.896,17.895-113.896l-3.73-0.773
					l-3.465,2.794l-20.748,115.645C221.581,203.127,224.946,202.009,228.523,199.665z"/>
				<path fill="#F78D1E" d="M232.015,74.765c8.572,1.565,15.109,6.167,14.604,10.28c-0.505,4.113-7.866,6.178-16.438,4.614
					c-8.571-1.565-15.109-6.167-14.604-10.28C216.083,75.267,223.441,73.2,232.015,74.765z"/>
				<path fill="#FCB116" d="M220.027,78.557c0,0,8.901,10.215,21.729,3.722l-1.725-36.515c0,0-5.896-4.2-10.093-0.221
					C226.33,56.321,220.027,78.557,220.027,78.557z"/>
				<path fill="#E29518" d="M241.316,82.47c-7.652,1.924-14.69-4.903-15.731-7.854c-1.023-2.906,3.88-23.521,5.437-29.886
					c-0.369,0.225-0.734,0.481-1.082,0.813c-3.609,10.779-9.912,33.014-9.912,33.014S228.729,88.504,241.316,82.47z"/>
				
					<linearGradient id="SVGID_7_" gradientUnits="userSpaceOnUse" x1="-595.7886" y1="-433.9258" x2="-534.8724" y2="-335.4998" gradientTransform="matrix(0.7622 -0.6473 0.6473 0.7622 861.4669 59.1074)">
					<stop  offset="0" style="stop-color:#FFFFFF"/>
					<stop  offset="1" style="stop-color:#FFFFFF;stop-opacity:0"/>
				</linearGradient>
				<polygon fill="url(#SVGID_7_)" points="220.804,87.329 205.771,196.819 199.775,192.901 215.61,85.835 				"/>
				<path opacity="0.55" fill="#FFFFFF" d="M233.307,45.584c0,0,6.731,0.082,5.951,1.837c-0.777,1.753-0.489,15.412-0.489,15.412
					S236.448,46.263,233.307,45.584z"/>
			</g>
			<g>
				<path fill="#9AD7D7" d="M121.947,91.017l27.344,110.097c0,0,18.724,9.734,30.2-11.071
					C150.202,81.389,151.673,79.14,151.673,79.14L121.947,91.017z"/>
				<path fill="#00AEC4" d="M127.459,113.208l17.864,71.927c4.979,0.947,21.605,2.948,30.082-10.306
					c-10.122-37.819-15.937-60.696-19.275-74.532C152.315,105.145,140.91,117.609,127.459,113.208z"/>
				
					<linearGradient id="SVGID_8_" gradientUnits="userSpaceOnUse" x1="-148.7363" y1="-665.5332" x2="-78.057" y2="-580.2809" gradientTransform="matrix(0.3721 -0.9282 0.9282 0.3721 784.1487 265.0283)">
					<stop  offset="0" style="stop-color:#003C1C"/>
					<stop  offset="1" style="stop-color:#FFFFFF;stop-opacity:0"/>
				</linearGradient>
				<path opacity="0.56" fill="url(#SVGID_8_)" d="M179.491,190.043C150.202,81.389,151.673,79.14,151.673,79.14l-3.593,1.437
					l-1.996,4.44l25.964,114.07C174.678,197.05,177.227,194.148,179.491,190.043z"/>
				<path fill="#00AEC4" d="M134.717,77.594c8.183-3.488,15.729-3.134,16.856,0.791c1.129,3.925-4.588,9.935-12.77,13.423
					c-8.181,3.488-15.728,3.134-16.856-0.791C120.82,87.092,126.535,81.082,134.717,77.594z"/>
				<path fill="#9AD7D7" d="M125.569,87.761c0,0,11.787,3.974,20.645-9.061l-15.519-31.313c0,0-6.823-0.364-9.011,5.541
					C122.623,64.513,125.569,87.761,125.569,87.761z"/>
				<path fill="#74C0C7" d="M145.897,79.121c-6.032,6.051-14.872,4.014-16.924,1.994c-2.019-1.987-5.582-23.007-6.644-29.52
					c-0.24,0.409-0.464,0.842-0.646,1.334c0.938,11.584,3.885,34.832,3.885,34.832S137.078,91.612,145.897,79.121z"/>
				
					<linearGradient id="SVGID_9_" gradientUnits="userSpaceOnUse" x1="-159.9009" y1="-687.1797" x2="-121.8391" y2="-625.681" gradientTransform="matrix(0.3721 -0.9282 0.9282 0.3721 784.1487 265.0283)">
					<stop  offset="0" style="stop-color:#FFFFFF"/>
					<stop  offset="1" style="stop-color:#FFFFFF;stop-opacity:0"/>
				</linearGradient>
				<polygon fill="url(#SVGID_9_)" points="129.617,95.077 158.278,200.458 151.476,200.4 124.449,96.709 				"/>
				<path opacity="0.55" fill="#FFFFFF" d="M124.677,51.051c0,0,5.988-3.753,5.971-1.759c-0.019,1.995,5.472,13.91,5.472,13.91
					S127.717,49.865,124.677,51.051z"/>
			</g>
		</g>
		<g clip-path="url(#SVGID_3_)">
			<path fill="#7E94CB" d="M165.665,70.058l10.299,110.043c0,0,16.357,13.157,30.178-4.14
				C193.794,66.876,195.506,65.055,195.506,65.055L165.665,70.058z"/>
			<path fill="#706CB2" d="M167.739,92.237l6.729,71.893c4.584,1.944,20.052,7.333,29.959-3.439
				c-4.229-37.954-6.494-60.848-7.696-74.657C192.429,89.824,179.858,99.235,167.739,92.237z"/>
			
				<linearGradient id="SVGID_10_" gradientUnits="userSpaceOnUse" x1="359.5518" y1="286.2183" x2="413.044" y2="350.7397" gradientTransform="matrix(0.5324 -0.8465 0.8465 0.5324 -277.0944 281.2555)">
				<stop  offset="0" style="stop-color:#003C1C"/>
				<stop  offset="1" style="stop-color:#FFFFFF;stop-opacity:0"/>
			</linearGradient>
			<path opacity="0.56" fill="url(#SVGID_10_)" d="M206.142,175.962C193.794,66.876,195.506,65.054,195.506,65.054l-3.608,0.605
				l-2.519,3.787l8.43,113.519C200.588,181.588,203.414,179.375,206.142,175.962z"/>
			<path fill="#706CB2" d="M179.663,60.026c8.245-1.585,15.344,0.336,15.857,4.292c0.512,3.955-5.757,8.447-14,10.031
				c-8.245,1.585-15.344-0.336-15.855-4.292C165.15,66.102,171.419,61.61,179.663,60.026z"/>
			<path fill="#7E94CB" d="M169.557,67.733c0,0,10.603,6.243,20.841-4.242l-10.265-32.926c0,0-6.411-1.779-9.321,3.355
				C170.059,45.091,169.557,67.733,169.557,67.733z"/>
			<path fill="#5F5C98" d="M190.037,63.823c-6.569,4.464-14.654,0.676-16.313-1.669c-1.631-2.307-2.026-22.968-2.11-29.361
				c-0.285,0.336-0.559,0.7-0.802,1.127c-0.753,11.171-1.255,33.813-1.255,33.813S179.913,73.802,190.037,63.823z"/>
			
				<linearGradient id="SVGID_11_" gradientUnits="userSpaceOnUse" x1="336.4824" y1="247.0562" x2="381.0139" y2="319.0085" gradientTransform="matrix(0.5324 -0.8465 0.8465 0.5324 -277.0944 281.2555)">
				<stop  offset="0" style="stop-color:#FFFFFF"/>
				<stop  offset="1" style="stop-color:#FFFFFF;stop-opacity:0"/>
			</linearGradient>
			<polygon fill="url(#SVGID_11_)" points="172.354,75.516 184.568,181.369 178.133,179.884 167.228,75.976 			"/>
			<path opacity="0.55" fill="#FFFFFF" d="M173.915,32.772c0,0,6.202-2.298,5.902-0.412c-0.299,1.886,3.213,14.327,3.213,14.327
				S176.963,32.287,173.915,32.772z"/>
		</g>
	</g>
</g>
<g>
	<g>
		<path fill="#65C6BA" d="M285.075,306.193l-1.565,2.91l0.695,2.906l-6.438,15.436l-2.783-0.67l1.393-1.344l-2.263-2.238
			l-5.565,4.477c0,1.342,0.173,2.162,0.52,2.459l-2.433,0.449l-2.089-2.461l-4.524,3.803l-1.738-0.896l-1.567,4.475l-5.739-4.475
			l-5.047,4.252l-12.002-2.238l-2.958-3.578c-1.161,4.025-1.855,6.039-2.088,6.039l-14.091-8.723l-6.438-9.174l-2.436,2.238
			l-0.521-1.789l-3.653,1.564l-1.218-2.236l-14.611-6.709l1.041-3.357l-5.218-12.525l-3.132,3.131l0.348,4.922l-0.348,2.014
			l-4.001-10.738l2.958-3.803l-5.742-1.342l-0.174-2.237l1.045-8.946l-2.61-6.264l0.696-2.684l-0.174-3.355l-2.437-3.355
			l0.871-5.592l-0.697-1.79l-4.523,7.829l-0.521-2.461l3.479-10.961l1.565,0.224l1.045-6.486c1.97-3.279,3.306-6.187,4.001-8.725
			l-1.914-2.012l-2.435,0.671l6.609-10.291c-0.233-1.342-0.348-2.461-0.348-3.355c0-1.489,0.288-2.237,0.869-2.237l3.827,9.842
			l3.827-6.711c-0.116-3.131-0.581-5.889-1.391-8.276l0.869-2.237l1.393,3.58l3.306,6.04l5.221-10.738l-2.96-3.802l1.044-0.224
			l3.653,4.026l2.61-6.487l0.869,2.685l0.871-2.46l-0.523-4.027l1.74-2.236l0.695,8.724l2.958-5.815l1.739,0.223l4.351-3.131
			l-0.521-2.684l5.044-3.804l1.042,3.804l1.742-1.119l0.694-5.145h0.35l2.436-2.908l5.045,2.236l3.304-6.486v2.684l1.22,3.131
			l2.781-2.907l3.653,3.131l1.045-0.224l6.61-8.276h0.695l2.784,7.605l2.262-3.132l3.306,2.684l2.435-0.895l0.697,1.79l-3.308,8.724
			l1.046,0.671l2.609-0.447l0.521,1.566l-4.001,4.249h-1.566l-1.739-2.684l-3.479,2.684l-8.872-3.802l-11.308,2.461l-5.74,5.815
			l-1.914-1.118l-2.089,1.342l0.348,5.815l-1.912-1.118l-7.481,10.29l-1.391-1.118l-4.001,9.842l-2.263-1.565l-0.869,3.578
			l-1.74,2.014c-0.465,0.597-1.394,2.611-2.784,6.04l-2.089-0.671l-2.78,10.29l0.521,4.474l-2.437,15.881
			c0.811,3.433,1.797,6.118,2.958,8.054c-0.695,2.387-1.043,3.728-1.043,4.025c0,1.045,0.925,1.94,2.78,2.684
			c1.972,0.748,3.365,1.679,4.177,2.797c0.81,1.118,1.622,3.169,2.437,6.151c0.927,2.983,1.738,4.808,2.435,5.48
			c0.697,0.67,1.507,1.006,2.436,1.006c0.811,0,1.45-0.146,1.915-0.447l18.092,16.553l0.173-2.014l2.263-0.67l17.918,7.605
			l7.133-1.117c2.088-0.299,4.06-1.043,5.915-2.238c1.854-1.191,3.711-1.789,5.568-1.789c0.925,0,1.912,0.076,2.956,0.223
			l6.09-14.092l1.738-0.895l5.221-7.158l-0.176-1.342l2.262,0.223L285.075,306.193z M170.778,280.918l-1.739-1.342l-0.697-2.907
			h2.437V280.918z M176.17,246.022v-0.224l-2.087,2.461h1.392L176.17,246.022z M179.823,262.798
			c-1.043,0.748-2.377,1.567-4.001,2.462l2.784,0.223L179.823,262.798z M176.867,284.72v-1.565h-1.045v2.237L176.867,284.72z
			 M178.606,233.719h-1.739l1.218,1.119L178.606,233.719z M183.824,306.643l-2.607,1.566l2.086-4.025h0.521V306.643z
			 M189.219,253.627c-0.233,0.597-0.523,0.895-0.87,0.895c-0.581,0-1.276-0.895-2.088-2.684l1.219,4.698v3.803l1.39-1.565
			L189.219,253.627z M213.401,188.31l-2.61-1.342l1.216-1.566l0.697,0.223L213.401,188.31z M218.62,322.301l-1.22-2.461
			l-0.521,0.223v2.91h0.87L218.62,322.301z M235.32,320.512l-0.869-1.566c-1.279,0.748-2.437,1.789-3.48,3.131l0.869,0.449
			L235.32,320.512z M245.931,186.296l-2.433-3.578l-0.35,2.012l2.261,1.791L245.931,186.296z M280.378,302.84l-1.043-0.895
			l-1.741,3.578l0.521,1.789l1.567,0.896l0.521-2.461L280.378,302.84z M280.378,313.801v-1.566l-1.391-1.117h-0.35v0.893
			l1.393,1.791H280.378z"/>
	</g>
	<path fill="#FFCE3B" d="M181.212,308.207l2.61-1.566v-2.463H183.3L181.212,308.207z M169.034,279.573l1.74,1.342v-4.25h-2.438
		L169.034,279.573z M281.417,291.654l-2.263-0.228l0.174,1.343l-5.219,7.16l-1.738,0.895l-6.09,14.094
		c-1.043-0.148-2.029-0.223-2.956-0.223c-1.857,0-3.715,0.596-5.567,1.787c-1.855,1.193-3.828,1.941-5.914,2.236l-7.134,1.119
		l-17.919-7.605l-2.261,0.67l-0.174,2.016l-18.093-16.553c-0.467,0.297-1.104,0.445-1.914,0.445c-0.93,0-1.741-0.336-2.435-1.006
		c-0.697-0.672-1.51-2.497-2.438-5.48c-0.811-2.982-1.624-5.034-2.433-6.153c-0.814-1.116-2.205-2.048-4.177-2.795
		c-1.857-0.746-2.782-1.639-2.782-2.684c0-0.297,0.346-1.64,1.043-4.027c-1.161-1.938-2.147-4.622-2.957-8.053l1.083-7.063
		c-8.449-3.549-15.29-7.941-20.821-12.763l-0.096,0.589l-1.565-0.223l-3.479,10.961l0.523,2.458l4.521-7.828l0.697,1.788
		l-0.869,5.596l2.436,3.355l0.174,3.353l-0.695,2.684l2.608,6.268l-1.045,8.946l0.174,2.237l5.742,1.341l-2.958,3.8l4.001,10.738
		l0.348-2.012l-0.348-4.92l3.132-3.135l5.22,12.529l-1.045,3.355l14.613,6.707l1.218,2.24l3.653-1.568l0.523,1.791l2.435-2.236
		l6.438,9.17l7.384,4.572c2.801-0.367,5.677-0.797,8.612-1.271c0.065-0.221,0.114-0.381,0.183-0.615l0.429,0.516
		c14.992-2.463,31.764-6.402,50.431-12.27l2.374-5.693l-0.695-2.91l1.565-2.906L281.417,291.654z M176.862,284.719l-1.043,0.672
		v-2.24h1.043V284.719z M178.602,265.483l-2.782-0.226c1.622-0.895,2.958-1.712,3.999-2.459L178.602,265.483z M217.745,322.973
		h-0.869v-2.912l0.521-0.223l1.218,2.463L217.745,322.973z M231.836,322.523l-0.869-0.449c1.043-1.342,2.202-2.383,3.479-3.129
		l0.868,1.564L231.836,322.523z M280.373,313.797h-0.348l-1.393-1.787v-0.896h0.35l1.391,1.119V313.797z M280.199,305.742
		l-0.521,2.465l-1.564-0.895l-0.521-1.791l1.736-3.578l1.045,0.895L280.199,305.742z"/>
	<path fill="#F37E90" d="M284.553,304.129c-1.458,0.432-2.897,0.867-4.334,1.299l-0.02,0.314l-0.521,2.465l-1.564-0.895
		l-0.336-1.154c-3.021,0.922-5.979,1.842-8.905,2.764l-2.591,5.996c-1.043-0.148-2.029-0.223-2.956-0.223
		c-1.857,0-3.715,0.596-5.567,1.787c-1.855,1.193-3.828,1.941-5.914,2.236l-7.134,1.119l-3.846-1.631
		c-1.938,0.672-3.844,1.342-5.713,2.006l0.163,0.297l-3.479,2.014l-0.869-0.449c0.16-0.207,0.343-0.359,0.509-0.551
		c-5.606,2.016-10.861,3.967-15.759,5.824l13.163,8.15c0.23,0,0.926-2.016,2.087-6.041l2.957,3.578l12.004,2.238l5.044-4.252
		l5.742,4.477l1.565-4.477l1.738,0.896l4.524-3.805l2.087,2.463l2.435-0.447c-0.346-0.299-0.52-1.117-0.52-2.459l5.565-4.477
		l2.263,2.234l-1.391,1.344l2.783,0.67l6.436-15.432l-0.695-2.91l1.565-2.906L284.553,304.129z M280.373,313.797h-0.348
		l-1.393-1.787v-0.896h0.35l1.391,1.119V313.797z"/>
</g>
</svg>
